<?xml version="1.0" encoding="utf-8"?>
<!DOCTYPE svg PUBLIC "-//W3C//DTD SVG 1.1//EN" "http://www.w3.org/Graphics/SVG/1.1/DTD/svg11.dtd">
<svg version="1.1" id="Layer_1" xmlns="http://www.w3.org/2000/svg" xmlns:xlink="http://www.w3.org/1999/xlink" x="0px" y="0px"
	 width="200px" height="200px" viewBox="-60 -60 200 200" enable-background="new -60 -60 200 200" xml:space="preserve">
<g>
	<circle fill="#291125" cx="40" cy="40" r="100"/>
	<g>
		<g>
			<path fill="#FFFFFF" d="M-22.072,21.058v-34.639h17.83v7.079h-9.865v20.45h9.865v7.107L-22.072,21.058L-22.072,21.058z"/>
			<path fill="#FFFFFF" d="M3.124,21.058v-34.639h98.95v34.636L3.124,21.058L3.124,21.058z M10.76-6.506v20.451h83.676V-6.506H10.76
				z"/>
			<path fill="#FFFFFF" d="M-22.072,61.576v-33.27h43.949l4.686,4.411v24.419l-4.686,4.44H-22.072L-22.072,61.576z M-14.425,35.378
				v19.092h33.347V35.378H-14.425z"/>
			<path fill="#FFFFFF" d="M43.192,62.974h-7.64V28.306h7.64V62.974z"/>
			<path fill="#FFFFFF" d="M59.778,62.974h-7.635V28.306h49.935v7.078h-42.3v6.69h42.295v7.073H59.778V62.974z"/>
			<path fill="#FFFFFF" d="M-22.072,67.369h8.214v10.42h107.98V56.66h7.956v29.187H43.464v26.466h-7.636V85.847h-57.9V67.369z"/>
		</g>
		<g>
			<rect x="32.52" y="6.12" fill="#EDEB6D" width="39.165" height="3.622"/>
			<rect x="15.77" y="-1.45" fill="#EDEB6D" width="15.974" height="3.627"/>
			<rect x="35.35" y="-1.45" fill="#EDEB6D" width="28.864" height="3.627"/>
			<rect x="67.302" y="-1.45" fill="#EDEB6D" width="8.246" height="3.627"/>
			<rect x="78.638" y="-1.45" fill="#EDEB6D" width="8.243" height="3.627"/>
			<rect x="15.77" y="6.12" fill="#EDEB6D" width="13.398" height="3.622"/>
		</g>
	</g>
</g>
</svg>
